SplineFontDB: 3.2
FontName: SingScript.sg_one
FullName: SingScript.sg "one" module
FamilyName: SingScript.sg
Weight: Regular
Copyright: Copyright (c) 2025, 05524F.sg (Singapore)
Version: v2
ItalicAngle: 0
UnderlinePosition: -100
UnderlineWidth: 67
Ascent: 600
Descent: 300
InvalidEm: 0
sfntRevision: 0x00010000
LayerCount: 2
Layer: 0 0 "Back" 1
Layer: 1 0 "Fore" 0
XUID: [1021 768 647112374 32286]
StyleMap: 0x0040
FSType: 0
OS2Version: 4
OS2_WeightWidthSlopeOnly: 0
OS2_UseTypoMetrics: 1
CreationTime: 1740441635
ModificationTime: 1753211280
PfmFamily: 65
TTFWeight: 400
TTFWidth: 5
LineGap: 81
VLineGap: 0
Panose: 3 0 5 3 0 0 0 0 0 0
OS2TypoAscent: 600
OS2TypoAOffset: 0
OS2TypoDescent: -300
OS2TypoDOffset: 0
OS2TypoLinegap: 81
OS2WinAscent: 590
OS2WinAOffset: 0
OS2WinDescent: 233
OS2WinDOffset: 0
HheadAscent: 590
HheadAOffset: 0
HheadDescent: -233
HheadDOffset: 0
OS2SubXSize: 585
OS2SubYSize: 630
OS2SubXOff: 0
OS2SubYOff: 126
OS2SupXSize: 585
OS2SupYSize: 630
OS2SupXOff: 0
OS2SupYOff: 432
OS2StrikeYSize: 44
OS2StrikeYPos: 232
OS2CapHeight: 467
OS2XHeight: 300
OS2Vendor: '5524'
OS2CodePages: 00000001.00000000
OS2UnicodeRanges: 80000003.10000000.00000000.00000000
MarkAttachClasses: 1
DEI: 91125
LangName: 1033 "" "" "" "" "" "Version v2"
Encoding: Custom
UnicodeInterp: none
NameList: AGL For New Fonts
DisplaySize: -48
AntiAlias: 1
FitToEm: 0
WidthSeparation: 50
WinInfo: 0 27 4
BeginPrivate: 6
BlueValues 21 [0 0 300 300 467 467]
OtherBlues 11 [-233 -233]
StdHW 4 [67]
StdVW 4 [67]
StemSnapH 33 [52 59 63 67 73 78 86 93 159 167]
StemSnapV 4 [67]
EndPrivate
Grid
0 -200 m 24
 351 -200 549 -200 900 -200 c 1048
0 -233 m 24
 351 -233 549 -233 900 -233 c 1048
250 211 m 24
 289 211 311 211 350 211 c 1048
250 100 m 24
 289 100 311 100 350 100 c 1048
250 -100 m 24
 289 -100 311 -100 350 -100 c 1048
250 -255 m 24
 289 -255 311 -255 350 -255 c 1048
100 511 m 24
 139 511 161 511 200 511 c 1048
100 400 m 24
 139 400 161 400 200 400 c 1048
100 200 m 24
 139 200 161 200 200 200 c 1048

StartChar: uni2010
Encoding: 14 8208 14
Width: 327
Flags: W
VStem: 25 277<130.047 179.953>
LayerCount: 2
Fore
SplineSet
270 127 m 4
 148 121 72 117 59 116 c 4
 41 116 25 132 25 150 c 4
 25 168 39 182 57 183 c 4
 179 189 255 193 268 194 c 4
 286 194 302 178 302 160 c 4
 302 142 288 128 270 127 c 4
EndSplineSet
EndChar

StartChar: uni2011
Encoding: 15 8209 15
Width: 327
Flags: W
VStem: 25 277<130.047 179.953>
LayerCount: 2
Fore
SplineSet
270 127 m 0
 148 121 72 117 59 116 c 0
 41 116 25 132 25 150 c 0
 25 168 39 182 57 183 c 0
 179 189 255 193 268 194 c 0
 286 194 302 178 302 160 c 0
 302 142 288 128 270 127 c 0
EndSplineSet
EndChar

StartChar: figuredash
Encoding: 16 8210 16
Width: 250
Flags: HW
VStem: 50 277<130.047 179.953>
LayerCount: 2
Fore
SplineSet
193 120 m 0
 71 114 72.0380859375 118 59 118 c 0
 41 118 25 134 25 152 c 0
 25 170 38.994140625 184.114257812 57 185 c 0
 179 191 178 186 191 187 c 0
 209 187 225 171 225 153 c 0
 225 135 211 121 193 120 c 0
EndSplineSet
EndChar

StartChar: endash
Encoding: 17 8211 17
Width: 450
Flags: HW
LayerCount: 2
Fore
SplineSet
393 129 m 0
 271 123 72.0380859375 116 59 116 c 0
 41 116 25 132 25 150 c 0
 25 168 38.994140625 182.114257812 57 183 c 0
 179 189 378 195 391 196 c 0
 409 196 425 180 425 162 c 0
 425 144 411 130 393 129 c 0
EndSplineSet
EndChar

StartChar: emdash
Encoding: 18 8212 18
Width: 900
Flags: HW
LayerCount: 2
Fore
SplineSet
843 128 m 0
 721 122 72.0380859375 115 59 115 c 0
 41 115 25 131 25 149 c 0
 25 167 38.994140625 181.114257812 57 182 c 0
 179 188 828 194 841 195 c 0
 859 195 875 179 875 161 c 0
 875 143 861 129 843 128 c 0
EndSplineSet
EndChar

StartChar: uni2015
Encoding: 19 8213 19
Width: 900
Flags: HW
LayerCount: 2
Fore
SplineSet
843 128 m 0
 721 122 72.0380859375 115 59 115 c 0
 41 115 25 131 25 149 c 0
 25 167 38.994140625 181.114257812 57 182 c 0
 179 188 828 194 841 195 c 0
 859 195 875 179 875 161 c 0
 875 143 861 129 843 128 c 0
EndSplineSet
EndChar

StartChar: uni2016
Encoding: 20 8214 20
Width: 260
Flags: HW
LayerCount: 2
Fore
SplineSet
153 -200 m 4xe0
 154 -182 165 292 168 419 c 6
 168 434 l 6
 168 452 183 467 201 467 c 4
 219 467 235 452 235 434 c 4xd0
 229 220 222 -48 219 -200 c 4
 219 -218 204 -233 186 -233 c 4
 168 -233 153 -218 153 -200 c 4xe0
25 -200 m 0xe0
 26 -182 37 292 40 419 c 2
 40 434 l 2
 40 452 55 467 73 467 c 0
 91 467 107 452 107 434 c 0xd0
 101 220 94 -48 91 -200 c 0
 91 -218 76 -233 58 -233 c 0
 40 -233 25 -218 25 -200 c 0xe0
EndSplineSet
EndChar

StartChar: underscoredbl
Encoding: 21 8215 21
Width: 322
Flags: HW
HStem: -185 66<28.4854 293.515>
VStem: 25 272<-180.51 -123.49>
LayerCount: 2
Fore
SplineSet
262 -129 m 6
 252 -128 213 -127 185 -127 c 6
 161 -127 l 6
 93 -127 82 -127 59 -126 c 4
 41 -126 25 -111 25 -93 c 4
 25 -75 41 -59 59 -59 c 6
 60 -59 l 6
 70 -60 109 -61 137 -61 c 6
 161 -61 l 6
 229 -61 240 -61 263 -62 c 4
 281 -62 297 -77 297 -95 c 4
 297 -113 281 -129 263 -129 c 6
 262 -129 l 6
262 -249 m 2
 252 -248 213 -247 185 -247 c 2
 161 -247 l 2
 93 -247 82 -247 59 -246 c 0
 41 -246 25 -231 25 -213 c 0
 25 -195 41 -179 59 -179 c 2
 60 -179 l 2
 70 -180 109 -181 137 -181 c 2
 161 -181 l 2
 229 -181 240 -181 263 -182 c 0
 281 -182 297 -197 297 -215 c 0
 297 -233 281 -249 263 -249 c 2
 262 -249 l 2
EndSplineSet
EndChar

StartChar: quoteleft
Encoding: 22 8216 22
Width: 165
Flags: W
HStem: 300 167<75.5721 89.4279>
VStem: 25 115
LayerCount: 2
Fore
SplineSet
106 300 m 0
 93 300 81 308 76 319 c 0
 75 320 29 418 29 419 c 0
 26 423 25 427 25 433 c 0
 25 451 41 467 59 467 c 0
 72 467 84 459 89 448 c 0
 90 447 136 349 136 348 c 0
 139 344 140 340 140 334 c 0
 140 316 124 300 106 300 c 0
EndSplineSet
EndChar

StartChar: quoteright
Encoding: 23 8217 23
Width: 165
Flags: W
HStem: 300 167<75.5721 89.4279>
VStem: 25 115
LayerCount: 2
Fore
SplineSet
106 467 m 0
 124 467 140 451 140 433 c 0
 140 427 139 423 136 419 c 0
 136 418 90 320 89 319 c 0
 84 308 72 300 59 300 c 0
 41 300 25 316 25 334 c 0
 25 340 26 344 29 348 c 0
 29 349 75 447 76 448 c 0
 81 459 93 467 106 467 c 0
EndSplineSet
EndChar

StartChar: quotesinglbase
Encoding: 24 8218 24
Width: 165
Flags: HW
HStem: 300 167<82.5721 96.4279>
VStem: 32 115
LayerCount: 2
Fore
SplineSet
106 76 m 4
 124 76 140 60 140 42 c 4
 140 36 139 32 136 28 c 4
 136 27 90 -71 89 -72 c 4
 84 -83 72 -91 59 -91 c 4
 41 -91 25 -75 25 -57 c 4
 25 -51 26 -47 29 -43 c 4
 29 -42 75 56 76 57 c 4
 81 68 93 76 106 76 c 4
EndSplineSet
EndChar

StartChar: quotereversed
Encoding: 25 8219 25
Width: 165
Flags: W
HStem: 300 167<75.5721 89.4279>
VStem: 25 115
LayerCount: 2
Fore
SplineSet
106 300 m 0
 93 300 81 308 76 319 c 0
 75 320 29 418 29 419 c 0
 26 423 25 427 25 433 c 0
 25 451 41 467 59 467 c 0
 72 467 84 459 89 448 c 0
 90 447 136 349 136 348 c 0
 139 344 140 340 140 334 c 0
 140 316 124 300 106 300 c 0
EndSplineSet
EndChar

StartChar: quotedblleft
Encoding: 26 8220 26
Width: 275
Flags: HW
HStem: 300 167<75.5721 89.4279>
VStem: 25 115
LayerCount: 2
Fore
SplineSet
216 300 m 4
 203 300 191 308 186 319 c 4
 185 320 139 418 139 419 c 4
 136 423 135 427 135 433 c 4
 135 451 151 467 169 467 c 4
 182 467 194 459 199 448 c 4
 200 447 246 349 246 348 c 4
 249 344 250 340 250 334 c 4
 250 316 234 300 216 300 c 4
106 300 m 0
 93 300 81 308 76 319 c 0
 75 320 29 418 29 419 c 0
 26 423 25 427 25 433 c 0
 25 451 41 467 59 467 c 0
 72 467 84 459 89 448 c 0
 90 447 136 349 136 348 c 0
 139 344 140 340 140 334 c 0
 140 316 124 300 106 300 c 0
EndSplineSet
EndChar

StartChar: quotedblright
Encoding: 27 8221 27
Width: 276
Flags: W
HStem: 300 167<59 112 186.239 202.761>
VStem: 82 64<410.219 463.488> 186 65<403.134 463.515>
LayerCount: 2
Fore
SplineSet
251 433 m 0
 251 426 223 361 203 320 c 0
 198 308 186 300 172 300 c 0
 154 300 138 316 138 334 c 0
 138 341 144 355 155 378 c 0
 163 395 174 418 186 447 c 0
 191 459 203 467 217 467 c 0
 235 467 251 451 251 433 c 0
112 467 m 0
 130 467 146 451 146 433 c 0
 146 425 140 411 106 350 c 0
 102 342 99 339 97 334 c 0
 83 305 77 300 59 300 c 0
 41 300 25 316 25 334 c 2
 25 335 l 2
 25 342 35 360 49 385 c 0
 59 403 71 425 82 449 c 0
 88 460 99 467 112 467 c 0
EndSplineSet
EndChar

StartChar: quotedblbase
Encoding: 28 8222 28
Width: 276
Flags: HW
HStem: 300 167<68 121 195.239 211.761>
VStem: 91 64<410.219 463.488> 195 65<403.134 463.515>
LayerCount: 2
Fore
SplineSet
251 55 m 4
 251 48 223 -17 203 -58 c 4
 198 -70 186 -78 172 -78 c 4
 154 -78 138 -62 138 -44 c 4
 138 -37 144 -23 155 0 c 4
 163 17 174 40 186 69 c 4
 191 81 203 89 217 89 c 4
 235 89 251 73 251 55 c 4
112 89 m 4
 130 89 146 73 146 55 c 4
 146 47 140 33 106 -28 c 4
 102 -36 99 -39 97 -44 c 4
 83 -73 77 -78 59 -78 c 4
 41 -78 25 -62 25 -44 c 6
 25 -43 l 6
 25 -36 35 -18 49 7 c 4
 59 25 71 47 82 71 c 4
 88 82 99 89 112 89 c 4
EndSplineSet
EndChar

StartChar: uni201F
Encoding: 29 8223 29
Width: 275
Flags: W
HStem: 300 167<75.5721 89.4279>
VStem: 25 115
LayerCount: 2
Fore
SplineSet
216 300 m 4
 203 300 191 308 186 319 c 4
 185 320 139 418 139 419 c 4
 136 423 135 427 135 433 c 4
 135 451 151 467 169 467 c 4
 182 467 194 459 199 448 c 4
 200 447 246 349 246 348 c 4
 249 344 250 340 250 334 c 4
 250 316 234 300 216 300 c 4
106 300 m 0
 93 300 81 308 76 319 c 0
 75 320 29 418 29 419 c 0
 26 423 25 427 25 433 c 0
 25 451 41 467 59 467 c 0
 72 467 84 459 89 448 c 0
 90 447 136 349 136 348 c 0
 139 344 140 340 140 334 c 0
 140 316 124 300 106 300 c 0
EndSplineSet
EndChar

StartChar: bullet
Encoding: 30 8226 30
Width: 118
Flags: W
HStem: 112 66<28.1243 89.8757>
VStem: 25 68<115.293 174.707>
LayerCount: 2
Fore
SplineSet
25 145 m 0
 25 163 41 178 59 178 c 0
 77 178 93 163 93 145 c 0
 93 127 77 112 59 112 c 0
 41 112 25 127 25 145 c 0
EndSplineSet
EndChar

StartChar: onedotenleader
Encoding: 31 8228 31
Width: 118
Flags: HW
HStem: 112 66<26.1243 87.8757>
VStem: 23 68<115.293 174.707>
LayerCount: 2
Fore
SplineSet
25 66 m 4
 25 84 41 99 59 99 c 4
 77 99 93 84 93 66 c 4
 93 48 77 33 59 33 c 4
 41 33 25 48 25 66 c 4
EndSplineSet
EndChar

StartChar: twodotenleader
Encoding: 32 8229 32
Width: 216
Flags: HW
HStem: 112 66<26.1243 87.8757>
VStem: 23 68<115.293 174.707>
LayerCount: 2
Fore
SplineSet
123 66 m 4
 123 84 139 99 157 99 c 4
 175 99 191 84 191 66 c 4
 191 48 175 33 157 33 c 4
 139 33 123 48 123 66 c 4
25 66 m 0
 25 84 41 99 59 99 c 0
 77 99 93 84 93 66 c 0
 93 48 77 33 59 33 c 0
 41 33 25 48 25 66 c 0
EndSplineSet
EndChar

StartChar: ellipsis
Encoding: 33 8230 33
Width: 314
Flags: HW
HStem: 112 66<26.1243 87.8757>
VStem: 23 68<115.293 174.707>
LayerCount: 2
Fore
SplineSet
221 66 m 4
 221 84 237 99 255 99 c 4
 273 99 289 84 289 66 c 4
 289 48 273 33 255 33 c 4
 237 33 221 48 221 66 c 4
123 66 m 0
 123 84 139 99 157 99 c 0
 175 99 191 84 191 66 c 0
 191 48 175 33 157 33 c 0
 139 33 123 48 123 66 c 0
25 66 m 0
 25 84 41 99 59 99 c 0
 77 99 93 84 93 66 c 0
 93 48 77 33 59 33 c 0
 41 33 25 48 25 66 c 0
EndSplineSet
EndChar

StartChar: uni2027
Encoding: 34 8231 34
Width: 118
Flags: W
HStem: 112 66<28.1243 89.8757>
VStem: 25 68<115.293 174.707>
LayerCount: 2
Fore
SplineSet
25 145 m 0
 25 163 41 178 59 178 c 0
 77 178 93 163 93 145 c 0
 93 127 77 112 59 112 c 0
 41 112 25 127 25 145 c 0
EndSplineSet
EndChar

StartChar: perthousand
Encoding: 36 8240 36
Width: 721
Flags: HW
HStem: 0 67<334 375.305> 144 67<350.127 392.683> 201 67<83.4024 122.254> 447 20G<117.5 169 358 373>
VStem: 25 58<246 335.381> 149 67<298.886 399.705> 266 67<67.0406 128.951> 393 67<82.6147 142.483>
LayerCount: 2
Fore
SplineSet
696 136 m 4
 696 58 646 0 578 0 c 4
 533 0 502 30 502 73 c 4
 502 148 554 211 615 211 c 4xdf
 666 211 696 183 696 136 c 4
629 141 m 5
 620 144 619 144 615 144 c 4xdf
 592 144 569 109 569 73 c 4
 569 69 569 69 570 68 c 4
 570 67 570 67 578 67 c 4
 580 67 580 67 595 70 c 6
 596 70 l 5
 597 71 597 71 598 71 c 4
 613 80 629 113 629 136 c 6
 629 141 l 5
148 467 m 0xbf
 190 467 216 433 216 378 c 0
 216 331 200 274 176 236 c 0
 163 214 136 201 104 201 c 0
 59 201 25 228 25 264 c 0
 25 364 87 467 148 467 c 0xbf
460 136 m 0
 460 58 410 0 342 0 c 0
 297 0 266 30 266 73 c 0
 266 148 318 211 379 211 c 0xdf
 430 211 460 183 460 136 c 0
364 467 m 0
 382 467 398 452 398 434 c 0
 398 428 396 422 393 417 c 0
 392 415 334 316 276 217 c 0
 218 118 160 19 159 17 c 0
 153 7 142 0 130 0 c 0
 112 0 96 16 96 34 c 0
 96 39 98 44 101 50 c 0
 102 52 160 151 218 250 c 0
 276 349 334 448 335 450 c 0
 341 460 352 467 364 467 c 0
83 285 m 0
 83 274 90 268 104 268 c 0xbf
 109 268 118 270 119 271 c 0
 127 285 149 362 149 378 c 0
 149 383 148 389 146 400 c 1
 131 395 83 308 83 285 c 0
393 141 m 1
 384 144 383 144 379 144 c 0xdf
 356 144 333 109 333 73 c 0
 333 69 333 69 334 68 c 0
 334 67 334 67 342 67 c 0
 344 67 344 67 359 70 c 2
 360 70 l 1
 361 71 361 71 362 71 c 0
 377 80 393 113 393 136 c 2
 393 141 l 1
EndSplineSet
EndChar

StartChar: uni2031
Encoding: 37 8241 37
Width: 959
Flags: HW
HStem: 0 67<334 375.305> 144 67<350.127 392.683> 201 67<83.4024 122.254> 447 20G<117.5 169 358 373>
VStem: 25 58<246 335.381> 149 67<298.886 399.705> 266 67<67.0406 128.951> 393 67<82.6147 142.483>
LayerCount: 2
Fore
SplineSet
934 136 m 0
 934 58 884 0 816 0 c 0
 771 0 740 30 740 73 c 0
 740 148 792 211 853 211 c 0xdf
 904 211 934 183 934 136 c 0
867 141 m 1
 858 144 857 144 853 144 c 0xdf
 830 144 807 109 807 73 c 0
 807 69 807 69 808 68 c 0
 808 67 808 67 816 67 c 0
 818 67 818 67 833 70 c 2
 834 70 l 1
 835 71 835 71 836 71 c 0
 851 80 867 113 867 136 c 2
 867 141 l 1
696 136 m 0
 696 58 646 0 578 0 c 0
 533 0 502 30 502 73 c 0
 502 148 554 211 615 211 c 0xdf
 666 211 696 183 696 136 c 0
629 141 m 1
 620 144 619 144 615 144 c 0xdf
 592 144 569 109 569 73 c 0
 569 69 569 69 570 68 c 0
 570 67 570 67 578 67 c 0
 580 67 580 67 595 70 c 2
 596 70 l 1
 597 71 597 71 598 71 c 0
 613 80 629 113 629 136 c 2
 629 141 l 1
148 467 m 0xbf
 190 467 216 433 216 378 c 0
 216 331 200 274 176 236 c 0
 163 214 136 201 104 201 c 0
 59 201 25 228 25 264 c 0
 25 364 87 467 148 467 c 0xbf
460 136 m 0
 460 58 410 0 342 0 c 0
 297 0 266 30 266 73 c 0
 266 148 318 211 379 211 c 0xdf
 430 211 460 183 460 136 c 0
364 467 m 0
 382 467 398 452 398 434 c 0
 398 428 396 422 393 417 c 0
 392 415 334 316 276 217 c 0
 218 118 160 19 159 17 c 0
 153 7 142 0 130 0 c 0
 112 0 96 16 96 34 c 0
 96 39 98 44 101 50 c 0
 102 52 160 151 218 250 c 0
 276 349 334 448 335 450 c 0
 341 460 352 467 364 467 c 0
83 285 m 0
 83 274 90 268 104 268 c 0xbf
 109 268 118 270 119 271 c 0
 127 285 149 362 149 378 c 0
 149 383 148 389 146 400 c 1
 131 395 83 308 83 285 c 0
393 141 m 1
 384 144 383 144 379 144 c 0xdf
 356 144 333 109 333 73 c 0
 333 69 333 69 334 68 c 0
 334 67 334 67 342 67 c 0
 344 67 344 67 359 70 c 2
 360 70 l 1
 361 71 361 71 362 71 c 0
 377 80 393 113 393 136 c 2
 393 141 l 1
EndSplineSet
EndChar

StartChar: minute
Encoding: 38 8242 38
Width: 165
Flags: W
HStem: 300 167<75.5721 89.4279>
VStem: 25 115
LayerCount: 2
Fore
SplineSet
106 467 m 0
 124 467 140 451 140 433 c 0
 140 427 139 423 136 419 c 0
 136 418 90 320 89 319 c 0
 84 308 72 300 59 300 c 0
 41 300 25 316 25 334 c 0
 25 340 26 344 29 348 c 0
 29 349 75 447 76 448 c 0
 81 459 93 467 106 467 c 0
EndSplineSet
EndChar

StartChar: second
Encoding: 39 8243 39
Width: 276
Flags: W
HStem: 300 167<59 112 186.239 202.761>
VStem: 82 64<410.219 463.488> 186 65<403.134 463.515>
LayerCount: 2
Fore
SplineSet
251 433 m 0
 251 426 223 361 203 320 c 0
 198 308 186 300 172 300 c 0
 154 300 138 316 138 334 c 0
 138 341 144 355 155 378 c 0
 163 395 174 418 186 447 c 0
 191 459 203 467 217 467 c 0
 235 467 251 451 251 433 c 0
112 467 m 0
 130 467 146 451 146 433 c 0
 146 425 140 411 106 350 c 0
 102 342 99 339 97 334 c 0
 83 305 77 300 59 300 c 0
 41 300 25 316 25 334 c 2
 25 335 l 2
 25 342 35 360 49 385 c 0
 59 403 71 425 82 449 c 0
 88 460 99 467 112 467 c 0
EndSplineSet
EndChar

StartChar: uni2034
Encoding: 40 8244 40
Width: 382
Flags: HW
HStem: 300 167<75.5721 89.4279>
VStem: 25 115
LayerCount: 2
Fore
SplineSet
323 467 m 4
 341 467 357 451 357 433 c 4
 357 427 356 423 353 419 c 4
 353 418 307 320 306 319 c 4
 301 308 289 300 276 300 c 4
 258 300 242 316 242 334 c 4
 242 340 243 344 246 348 c 4
 246 349 292 447 293 448 c 4
 298 459 310 467 323 467 c 4
251 433 m 0
 251 426 223 361 203 320 c 0
 198 308 186 300 172 300 c 0
 154 300 138 316 138 334 c 0
 138 341 144 355 155 378 c 0
 163 395 174 418 186 447 c 0
 191 459 203 467 217 467 c 0
 235 467 251 451 251 433 c 0
112 467 m 0
 130 467 146 451 146 433 c 0
 146 425 140 411 106 350 c 0
 102 342 99 339 97 334 c 0
 83 305 77 300 59 300 c 0
 41 300 25 316 25 334 c 2
 25 335 l 2
 25 342 35 360 49 385 c 0
 59 403 71 425 82 449 c 0
 88 460 99 467 112 467 c 0
EndSplineSet
EndChar

StartChar: uni2035
Encoding: 41 8245 41
Width: 165
Flags: W
HStem: 300 167<75.5721 89.4279>
VStem: 25 115
LayerCount: 2
Fore
SplineSet
106 300 m 0
 93 300 81 308 76 319 c 0
 75 320 29 418 29 419 c 0
 26 423 25 427 25 433 c 0
 25 451 41 467 59 467 c 0
 72 467 84 459 89 448 c 0
 90 447 136 349 136 348 c 0
 139 344 140 340 140 334 c 0
 140 316 124 300 106 300 c 0
EndSplineSet
EndChar

StartChar: uni2036
Encoding: 42 8246 42
Width: 275
Flags: W
HStem: 300 167<75.5721 89.4279>
VStem: 25 115
LayerCount: 2
Fore
SplineSet
216 300 m 4
 203 300 191 308 186 319 c 4
 185 320 139 418 139 419 c 4
 136 423 135 427 135 433 c 4
 135 451 151 467 169 467 c 4
 182 467 194 459 199 448 c 4
 200 447 246 349 246 348 c 4
 249 344 250 340 250 334 c 4
 250 316 234 300 216 300 c 4
106 300 m 0
 93 300 81 308 76 319 c 0
 75 320 29 418 29 419 c 0
 26 423 25 427 25 433 c 0
 25 451 41 467 59 467 c 0
 72 467 84 459 89 448 c 0
 90 447 136 349 136 348 c 0
 139 344 140 340 140 334 c 0
 140 316 124 300 106 300 c 0
EndSplineSet
EndChar

StartChar: uni2037
Encoding: 43 8247 43
Width: 386
Flags: HW
HStem: 300 167<75.5721 89.4279>
VStem: 25 115
LayerCount: 2
Fore
SplineSet
327 300 m 4
 314 300 302 308 297 319 c 4
 296 320 250 418 250 419 c 4
 247 423 246 427 246 433 c 4
 246 451 262 467 280 467 c 4
 293 467 305 459 310 448 c 4
 311 447 357 349 357 348 c 4
 360 344 361 340 361 334 c 4
 361 316 345 300 327 300 c 4
216 300 m 0
 203 300 191 308 186 319 c 0
 185 320 139 418 139 419 c 0
 136 423 135 427 135 433 c 0
 135 451 151 467 169 467 c 0
 182 467 194 459 199 448 c 0
 200 447 246 349 246 348 c 0
 249 344 250 340 250 334 c 0
 250 316 234 300 216 300 c 0
106 300 m 0
 93 300 81 308 76 319 c 0
 75 320 29 418 29 419 c 0
 26 423 25 427 25 433 c 0
 25 451 41 467 59 467 c 0
 72 467 84 459 89 448 c 0
 90 447 136 349 136 348 c 0
 139 344 140 340 140 334 c 0
 140 316 124 300 106 300 c 0
EndSplineSet
EndChar

StartChar: uni2038
Encoding: 44 8248 44
Width: 225
Flags: HW
HStem: 300 167<141.28 172.842>
VStem: 31 71<313 357.701> 138 68<303.864 334>
LayerCount: 2
Fore
SplineSet
166 -82 m 4
 149 -82 132 -66 132 -50 c 4
 129 -36 127 -27 123 -13 c 5
 107 -37 101 -48 96 -61 c 4
 93 -69 93 -69 85 -69 c 5
 80 -77 69 -82 58 -82 c 4
 40 -82 25 -67 25 -49 c 4
 25 -41 27 -34 31 -28 c 4
 42 -15 52 2 63 18 c 4
 78 41 93 64 106 74 c 4
 114 82 122 85 134 85 c 4
 161 85 172 69 186 9 c 4
 190 -12 196 -35 199 -44 c 4
 200 -46 200 -48 200 -48 c 4
 200 -66 184 -82 166 -82 c 4
EndSplineSet
EndChar

StartChar: guilsinglleft
Encoding: 45 8249 45
Width: 299
Flags: W
HStem: 0 84<174.734 237.53> 280 20G<236.5 250>
VStem: 25 249
LayerCount: 2
Fore
SplineSet
241 300 m 0
 259 300 274 285 274 267 c 0
 274 255 268 244 259 238 c 0
 232 220 202 204 174 190 c 0
 143 174 114 159 95 144 c 1
 107 128 133 113 197 84 c 0
 253 59 259 54 259 33 c 0
 259 15 244 0 226 0 c 0
 209 0 102 51 69 76 c 0
 40 97 25 122 25 149 c 0
 25 182 44 198 149 254 c 0
 168 264 181 271 202 283 c 0
 227 298 232 300 241 300 c 0
EndSplineSet
EndChar

StartChar: guilsinglright
Encoding: 46 8250 46
Width: 271
Flags: W
HStem: 0 21G<51 66.5> 280 20G<49 62.5>
VStem: 27 219
LayerCount: 2
Fore
SplineSet
27 33 m 0
 27 58 65 82 103 106 c 0
 132 124 162 143 176 163 c 1
 159 176 134 189 107 202 c 0
 84 213 60 225 40 238 c 0
 31 243 25 255 25 267 c 0
 25 285 40 300 58 300 c 0
 67 300 69 299 79 293 c 0
 89 287 105 277 142 259 c 0
 227 216 246 200 246 167 c 0
 246 129 222 103 139 49 c 0
 132 45 124 39 115 32 c 0
 96 17 73 0 60 0 c 0
 42 0 27 15 27 33 c 0
EndSplineSet
EndChar

StartChar: uni203E
Encoding: 47 8254 47
Width: 330
Flags: HW
HStem: 524 67<28.293 300.327>
VStem: 25 280<527.012 584.988>
LayerCount: 2
Fore
SplineSet
25 557 m 0
 25 575 40 591 58 591 c 2
 272 588 l 2
 290 588 305 573 305 555 c 0
 305 537 289 521 271 521 c 2
 58 524 l 2
 40 524 25 539 25 557 c 0
EndSplineSet
EndChar

StartChar: uni2043
Encoding: 48 8259 48
Width: 327
Flags: W
VStem: 25 277<130.047 179.953>
LayerCount: 2
Fore
SplineSet
270 127 m 4
 148 121 72 117 59 116 c 4
 41 116 25 132 25 150 c 4
 25 168 39 182 57 183 c 4
 179 189 255 193 268 194 c 4
 286 194 302 178 302 160 c 4
 302 142 288 128 270 127 c 4
EndSplineSet
EndChar

StartChar: fraction
Encoding: 49 8260 49
Width: 340
Flags: W
HStem: 447 20G<274 290>
VStem: 25 65<-107.515 -44.422> 250 65<402.216 463.515>
LayerCount: 2
Fore
SplineSet
281 467 m 0
 299 467 315 451 315 433 c 0
 315 424 257 293 198 158 c 0
 156 63 113 -34 90 -90 c 0
 86 -102 72 -111 59 -111 c 0
 41 -111 25 -95 25 -77 c 0
 25 -70 111 126 177 277 c 0
 214 362 244 432 250 447 c 0
 255 459 267 467 281 467 c 0
EndSplineSet
EndChar

StartChar: uni204E
Encoding: 50 8270 50
Width: 268
Flags: HW
HStem: 347 64<24.3641 73.8942 184.462 235.876> 447 20G<120 138>
VStem: 96 67<396 463.515>
LayerCount: 2
Fore
SplineSet
58 205 m 0
 66 205 71 202 79 198 c 0
 84 195 91 191 100 188 c 1
 100 230 l 2
 101 247 115 261 133 261 c 0
 151 261 167 245 167 227 c 2
 167 190 l 1
 190 201 203 206 209 206 c 0
 227 206 243 190 243 172 c 0
 243 158 235 146 223 141 c 0
 198 131 198 131 188 126 c 1
 217 97 l 2
 223 91 227 82 227 73 c 0
 227 55 212 40 194 40 c 0
 184 40 176 43 170 49 c 2
 133 87 l 1
 132 86 125 78 119 70 c 0
 113 62 106 53 105 52 c 0
 99 44 90 40 79 40 c 0
 61 40 46 55 46 73 c 0
 46 87 47 89 78 125 c 1
 76 126 62 132 44 141 c 2
 33 146 25 158 25 171 c 0
 25 189 40 205 58 205 c 0
EndSplineSet
EndChar

StartChar: uni2053
Encoding: 51 8275 51
Width: 432
Flags: W
HStem: 133 67<116.495 185.204>
LayerCount: 2
Fore
SplineSet
257 45 m 0
 230 45 216 67 202 89 c 0
 188 111 175 133 148 133 c 0
 127 133 115 113 103 92 c 0
 91 71 79 50 58 50 c 0
 40 50 25 65 25 83 c 0
 25 93 30 104 40 118 c 0
 41 118 41 118 41 119 c 0
 78 180 105 200 148 200 c 0
 188 200 215 181 244 133 c 0
 250 123 254 117 258 113 c 0
 297 116 314 144 329 168 c 0
 341 188 352 206 373 206 c 0
 391 206 407 190 407 172 c 0
 407 160 401 153 395 145 c 0
 391 140 387 136 384 130 c 0
 344 70 313 49 261 46 c 2
 259 46 l 2
 258 46 258 46 257 45 c 0
EndSplineSet
EndChar

StartChar: uni2057
Encoding: 52 8279 52
Width: 483
Flags: HW
HStem: 300 167<75.5721 89.4279>
VStem: 25 115
LayerCount: 2
Fore
SplineSet
424 467 m 4
 442 467 458 451 458 433 c 4
 458 427 457 423 454 419 c 4
 454 418 408 320 407 319 c 4
 402 308 390 300 377 300 c 4
 359 300 343 316 343 334 c 4
 343 340 344 344 347 348 c 4
 347 349 393 447 394 448 c 4
 399 459 411 467 424 467 c 4
323 467 m 0
 341 467 357 451 357 433 c 0
 357 427 356 423 353 419 c 0
 353 418 307 320 306 319 c 0
 301 308 289 300 276 300 c 0
 258 300 242 316 242 334 c 0
 242 340 243 344 246 348 c 0
 246 349 292 447 293 448 c 0
 298 459 310 467 323 467 c 0
251 433 m 0
 251 426 223 361 203 320 c 0
 198 308 186 300 172 300 c 0
 154 300 138 316 138 334 c 0
 138 341 144 355 155 378 c 0
 163 395 174 418 186 447 c 0
 191 459 203 467 217 467 c 0
 235 467 251 451 251 433 c 0
112 467 m 0
 130 467 146 451 146 433 c 0
 146 425 140 411 106 350 c 0
 102 342 99 339 97 334 c 0
 83 305 77 300 59 300 c 0
 41 300 25 316 25 334 c 2
 25 335 l 2
 25 342 35 360 49 385 c 0
 59 403 71 425 82 449 c 0
 88 460 99 467 112 467 c 0
EndSplineSet
EndChar

StartChar: uni205D
Encoding: 53 8285 53
Width: 120
Flags: HW
HStem: 112 66<29.1243 90.8757>
VStem: 26 68<115.293 174.707>
LayerCount: 2
Fore
SplineSet
27 234 m 0
 27 252 43 267 61 267 c 0
 79 267 95 252 95 234 c 0
 95 216 79 201 61 201 c 0
 43 201 27 216 27 234 c 0
25 33 m 0
 25 51 41 66 59 66 c 0
 77 66 93 51 93 33 c 0
 93 15 77 0 59 0 c 0
 41 0 25 15 25 33 c 0
25 136 m 4
 25 154 41 169 59 169 c 4
 77 169 93 154 93 136 c 4
 93 118 77 103 59 103 c 4
 41 103 25 118 25 136 c 4
EndSplineSet
EndChar

StartChar: uni2070
Encoding: 60 8304 60
Width: 242
Flags: HW
HStem: 200 45<88 133> 467 45<95 155>
VStem: 25 45<264 430> 172 45<310 450>
LayerCount: 2
Fore
SplineSet
121 467 m 2
 88 467 69 420 69 337 c 0
 69 318 70 302 71 291 c 0
 74 268 96 245 113 245 c 0
 141 245 172 324 172 395 c 0
 172 443 156 467 125 467 c 2
 121 467 l 2
217 395 m 0
 217 288 170 200 113 200 c 0
 72 200 32 238 27 285 c 0
 25 298 25 315 25 337 c 0
 25 420 44 475 82 499 c 0
 94 507 109 511 125 511 c 0
 185 511 217 471 217 395 c 0
EndSplineSet
EndChar

StartChar: uni2071
Encoding: 61 8305 61
Width: 108
Flags: HW
HStem: 200 14G<41 53> 387 13G<50 62> 467 45<41 80>
VStem: 25 45<202 364> 34 45<236 398> 39 44<469 509>
LayerCount: 2
Fore
SplineSet
56 400 m 0xe8
 68 400 79 389 79 377 c 0xe8
 75 318 72 275 69 221 c 0
 68 209 59 200 47 200 c 0
 35 200 25 211 25 223 c 0xf0
 29 282 31 325 34 379 c 0
 35 391 44 400 56 400 c 0xe8
39 489 m 0xe4
 39 501 49 511 61 511 c 0
 73 511 83 501 83 489 c 0
 83 477 73 467 61 467 c 0
 49 467 39 477 39 489 c 0xe4
EndSplineSet
EndChar

StartChar: uni2074
Encoding: 62 8308 62
Width: 256
Flags: HW
HStem: 200 14G<114.049 126.049> 311 45<71.0494 104.049> 387 13G<205.049 215.049> 498 13G<47.0494 59.0494 134.049 146.049>
VStem: 25.0494 45<357 496> 31.0494 45<392 509> 97.0494 45<202 312> 118.049 45<381 509>
LayerCount: 2
Fore
SplineSet
154.049804688 376 m 1xf9
 174.049804688 385 184.049804688 391 191.049804688 395 c 0
 198.049804688 399 202.049804688 401 209.049804688 401 c 0
 221.049804688 401 231.049804688 391 231.049804688 379 c 0
 231.049804688 371 227.049804688 363 220.049804688 359 c 0
 201.049804688 348 177.049804688 337 150.049804688 327 c 0
 149.049804688 326 143.049804688 244 142.049804688 225 c 0
 142.049804688 222 142.049804688 221 142.049804688 221 c 0
 141.049804688 210 132.049804688 200 120.049804688 200 c 0
 108.049804688 200 97.0498046875 211 97.0498046875 223 c 0
 97.0498046875 224 98.0498046875 236 99.0498046875 255 c 0
 100.049804688 270 102.049804688 289 104.049804688 313 c 1
 98.0498046875 312 85.0498046875 311 82.0498046875 311 c 0
 41.0498046875 311 25.0498046875 334 25.0498046875 391 c 0xfa
 25.0498046875 403 24.0498046875 403 31.0498046875 490 c 0
 32.0498046875 502 41.0498046875 511 53.0498046875 511 c 0
 65.0498046875 511 76.0498046875 501 76.0498046875 489 c 0xf4
 76.0498046875 479 74.0498046875 459 73.0498046875 440 c 0
 72.0498046875 421 69.0498046875 401 69.0498046875 391 c 0
 69.0498046875 372 71.0498046875 362 74.0498046875 357 c 1
 75.0498046875 357 l 2
 77.0498046875 356 78.0498046875 356 82.0498046875 356 c 0
 89.0498046875 356 97.0498046875 357 108.049804688 360 c 1
 109.049804688 361 109.049804688 363 109.049804688 365 c 0
 115.049804688 434 116.049804688 449 118.049804688 491 c 0
 119.049804688 503 128.049804688 511 140.049804688 511 c 0
 152.049804688 511 163.049804688 501 163.049804688 489 c 0
 163.049804688 488 163.049804688 487 154.049804688 376 c 1xf9
EndSplineSet
EndChar

StartChar: uni2075
Encoding: 63 8309 63
Width: 240
Flags: HW
HStem: 194 45<72 151> 465 45<81 213>
VStem: 33 45<392 467> 164 45<252 310>
LayerCount: 2
Fore
SplineSet
111 513 m 2
 115 513 l 2
 128 513 135 514 182 511 c 0
 184 511 186 511 188 511 c 0
 190 511 192 510 194 510 c 0
 206 509 215 500 215 488 c 0
 215 476 205 465 193 465 c 2
 190 465 l 1
 152 468 126 469 111 469 c 0
 98 469 86 468 81 467 c 1
 78 449 77 442 77 435 c 0
 77 397 86 388 137 367 c 0
 192 344 209 327 209 293 c 0
 209 233 172 194 117 194 c 0
 70 194 25 220 25 245 c 0
 25 257 35 267 47 267 c 0
 56 267 64 262 67 255 c 1
 79 246 100 239 117 239 c 0
 148 239 163 256 164 291 c 2
 164 293 l 2
 164 308 147 314 124 323 c 0
 101 332 72 343 53 366 c 0
 39 382 33 404 33 435 c 0
 33 454 38 482 43 493 c 0
 50 508 68 513 111 513 c 2
EndSplineSet
EndChar

StartChar: uni2076
Encoding: 64 8310 64
Width: 201
Flags: HW
HStem: 200 45<75 125> 498 13G<132 142>
VStem: 131 45<252 310>
LayerCount: 2
Fore
SplineSet
97 245 m 0
 116 245 131 258 131 275 c 0
 131 298 111 326 90 331 c 1
 78 302 71 283 69 270 c 1
 73 253 83 245 97 245 c 0
159 489 m 0
 159 486 158 486 154 477 c 0
 148 465 135 438 107 373 c 1
 146 360 176 317 176 275 c 0
 176 233 141 200 97 200 c 0
 60 200 25 233 25 269 c 0
 25 294 57 376 116 499 c 0
 119 506 127 511 136 511 c 0
 148 511 159 501 159 489 c 0
EndSplineSet
EndChar

StartChar: uni2077
Encoding: 65 8311 65
Width: 217
Flags: HW
HStem: 200 14G<130 142> 498 13G<143 166>
VStem: 113 45<202 300> 147 45<354 458 459 467>
LayerCount: 2
Fore
SplineSet
113 223 m 0xe0
 113 254 122 297 131 340 c 0
 140 383 147 427 147 458 c 0
 147 459 l 0
 147 460 l 2
 147 467 l 1
 112 464 68 458 53 455 c 0
 50 454 47 454 47 454 c 0
 35 454 25 465 25 477 c 0
 25 488 32 497 43 499 c 0
 86 506 131 511 155 511 c 0
 177 511 190 503 191 488 c 2
 191 484 l 2
 191 482 191 476 191 471 c 0
 191 466 192 460 192 458 c 0xd0
 192 403 183 358 174 315 c 0
 168 284 161 255 158 220 c 0
 157 209 147 200 136 200 c 0
 124 200 113 211 113 223 c 0xe0
EndSplineSet
EndChar

StartChar: uni2078
Encoding: 66 8312 66
Width: 204
Flags: HW
HStem: 200 45<85 133> 467 45<76 117>
VStem: 27 45<258 307 393 458> 134 45<245 289>
LayerCount: 2
Fore
SplineSet
118 200 m 0
 69 200 27 237 27 282 c 0
 27 299 33 311 58 353 c 1
 35 378 25 403 25 431 c 0
 25 441 26 451 29 461 c 0
 36 489 76 511 117 511 c 0
 145 511 163 497 163 474 c 0
 163 442 149 410 115 359 c 1
 123 351 l 1
 166 312 179 290 179 254 c 0
 179 221 155 200 118 200 c 0
91 321 m 1
 91 318 86 309 81 301 c 0
 76 293 72 285 72 282 c 2
 72 279 l 1
 75 260 95 245 118 245 c 0
 129 245 134 247 134 254 c 0
 134 275 130 282 92 320 c 0
 91 320 92 320 91 321 c 1
117 467 m 1
 102 467 76 456 72 449 c 0
 70 444 69 438 69 431 c 0
 69 417 74 404 83 392 c 1
 106 427 115 448 117 467 c 1
EndSplineSet
EndChar

StartChar: uni2079
Encoding: 67 8313 67
Width: 227
Flags: HW
HStem: 200 14G<157 168> 361 39<72 123> 467 45<81 131>
VStem: 25 45<403 455> 157 45<259 387>
LayerCount: 2
Fore
SplineSet
69 425 m 0
 69 410 78 401 91 401 c 0
 108 401 126 412 142 435 c 1
 134 455 121 467 108 467 c 0
 87 467 69 448 69 425 c 0
140 223 m 0
 140 236 145 261 149 287 c 0
 153 313 157 338 157 351 c 0
 157 366 157 376 154 387 c 1
 129 368 112 361 91 361 c 0
 51 361 25 386 25 425 c 0
 25 472 62 511 108 511 c 0
 142 511 170 487 185 445 c 2
 192 424 l 2
 199 399 202 375 202 351 c 0
 202 322 202 323 185 219 c 0
 183 208 174 200 163 200 c 0
 151 200 140 211 140 223 c 0
EndSplineSet
EndChar

StartChar: uni207A
Encoding: 68 8314 68
Width: 230
Flags: HW
HStem: 200 14G<111 123> 281 44<28 93 139 202> 387 13G<109 121>
VStem: 95 44<202 279 325 397>
LayerCount: 2
Fore
SplineSet
46 323 m 0
 47 323 49 324 52 324 c 0
 55 324 58 324 59 324 c 2
 93 324 l 1
 93 377 l 1
 93 389 103 400 115 400 c 0
 127 400 137 390 137 378 c 0
 138 363 138 358 138 325 c 1
 148 325 l 2
 149 325 152 325 153 325 c 0
 154 325 156 326 157 326 c 2
 168 326 l 2
 181 326 181 326 182 327 c 0
 194 327 205 316 205 304 c 0
 205 292 195 283 183 282 c 0
 181 282 179 281 177 281 c 0
 175 281 174 281 172 281 c 2
 150 281 l 2
 149 281 146 281 144 281 c 0
 142 281 140 281 139 281 c 1
 139 223 l 1
 139 211 129 200 117 200 c 0
 105 200 95 210 95 222 c 0
 94 237 94 242 94 279 c 1
 83 278 74 279 47 279 c 0
 35 279 25 289 25 301 c 0
 25 313 34 322 46 323 c 0
EndSplineSet
EndChar

StartChar: uni207B
Encoding: 69 8315 69
Width: 234
Flags: HW
VStem: 25 185<287 320>
LayerCount: 2
Fore
SplineSet
188 285 m 0
 107 281 56 278 47 277 c 0
 35 277 25 288 25 300 c 0
 25 312 34 321 46 322 c 0
 127 326 178 328 187 329 c 0
 199 329 209 319 209 307 c 0
 209 295 200 286 188 285 c 0
EndSplineSet
EndChar

StartChar: uni207C
Encoding: 70 8316 70
Width: 234
Flags: HW
HStem: 225 45<27 185> 230 45<131 207> 315 45<28 112> 322 41<50 179 180 201>
VStem: 25 185<232 267>
LayerCount: 2
Fore
SplineSet
47 360 m 0x28
 51 360 82 362 113 363 c 0
 144 364 175 366 179 366 c 1
 180 367 l 1
 192 367 203 356 203 344 c 0
 203 332 193 323 181 322 c 0x18
 176 322 96 318 47 315 c 0
 35 315 25 326 25 338 c 0
 25 350 35 359 47 360 c 0x28
47 225 m 0x88
 35 225 25 235 25 247 c 0
 25 259 34 268 47 269 c 0x88
 50 269 74 270 105 271 c 0
 131 272 162 274 187 275 c 0
 199 275 209 264 209 252 c 0
 209 240 200 231 187 230 c 0x48
 184 230 160 229 129 228 c 0
 103 227 72 226 47 225 c 0x88
EndSplineSet
EndChar

StartChar: uni207D
Encoding: 71 8317 71
Width: 183
Flags: HW
HStem: 45 14G<116 126> 498 13G<133 142>
VStem: 25 45<186 352>
LayerCount: 2
Fore
SplineSet
119 503 m 0
 122 508 129 511 136 511 c 0
 148 511 158 501 158 489 c 0
 158 484 156 479 153 475 c 0
 96 410 69 343 69 266 c 0
 69 203 94 134 137 81 c 0
 140 77 142 73 142 67 c 0
 142 55 132 45 120 45 c 0
 113 45 106 48 103 53 c 0
 54 116 25 194 25 266 c 0
 25 353 54 428 119 503 c 0
EndSplineSet
EndChar

StartChar: uni207E
Encoding: 72 8318 72
Width: 195
Flags: HW
HStem: 45 14G<41 50> 498 13G<70 79>
VStem: 125 45<208 375>
LayerCount: 2
Fore
SplineSet
54 489 m 0
 54 501 64 511 76 511 c 0
 83 511 89 509 93 504 c 0
 140 453 170 369 170 289 c 0
 170 204 143 146 63 53 c 0
 58 48 53 45 47 45 c 0
 35 45 25 55 25 67 c 0
 25 72 27 77 30 81 c 0
 103 166 125 216 125 289 c 0
 125 356 98 431 59 474 c 0
 56 478 54 483 54 489 c 0
EndSplineSet
EndChar

StartChar: uni207F
Encoding: 73 8319 73
Width: 224
Flags: HW
HStem: 200 14G<40 58 168 181> 341 45<102 150> 387 13G<71 81>
VStem: 25 47<202 306> 155 45<203 340>
LayerCount: 2
Fore
SplineSet
199 281 m 0
 199 273 199 262 198 251 c 0
 197 240 197 229 197 221 c 0
 196 209 187 200 175 200 c 0
 162 200 153 209 153 222 c 2
 153 224 l 2
 154 247 155 266 155 281 c 0
 155 314 152 334 145 341 c 1
 141 341 l 2
 130 341 105 332 94 323 c 1
 74 296 72 266 71 243 c 0
 70 218 68 200 47 200 c 0
 33 200 25 210 25 225 c 0
 25 272 38 342 55 386 c 0
 58 395 66 400 75 400 c 0
 87 400 98 389 98 377 c 1
 97 377 l 1
 97 376 l 1
 114 383 128 386 141 386 c 0
 182 386 199 354 199 281 c 0
EndSplineSet
EndChar

StartChar: uni2080
Encoding: 74 8320 74
Width: 242
Flags: HW
HStem: -100 45<88 133> 167 45<95 155>
VStem: 25 45<-36 130> 172 45<10 150>
LayerCount: 2
Fore
SplineSet
121 167 m 2
 88 167 69 120 69 37 c 0
 69 18 70 2 71 -9 c 0
 74 -32 96 -55 113 -55 c 0
 141 -55 172 24 172 95 c 0
 172 143 156 167 125 167 c 2
 121 167 l 2
217 95 m 0
 217 -12 170 -100 113 -100 c 0
 72 -100 32 -62 27 -15 c 0
 25 -2 25 15 25 37 c 0
 25 120 44 175 82 199 c 0
 94 207 109 211 125 211 c 0
 185 211 217 171 217 95 c 0
EndSplineSet
EndChar

StartChar: uni2081
Encoding: 75 8321 75
Width: 99
Flags: HW
HStem: -100 14G<41 53> 198 13G<46 58>
VStem: 25 44<-98 53> 27 45<-77 208>
LayerCount: 2
Fore
SplineSet
74 189 m 0xd0
 74 182 74 154 73 127 c 0
 72 100 71 71 71 64 c 2
 71 55 l 2xd0
 70 19 70 -15 69 -78 c 0
 69 -90 59 -100 47 -100 c 0
 35 -100 25 -89 25 -77 c 0xe0
 25 -64 25 -52 27 47 c 2
 27 61 l 2
 27 62 27 63 27 64 c 0
 27 65 27 66 27 67 c 0
 28 96 28 95 30 189 c 0
 30 201 40 211 52 211 c 0
 64 211 74 201 74 189 c 0xd0
EndSplineSet
EndChar

StartChar: uni2082
Encoding: 76 8322 76
Width: 250
Flags: HW
HStem: -100 45<94 211> -93 44<111 223> 198 13G<133 160>
LayerCount: 2
Fore
SplineSet
143 167 m 1xa0
 118 164 94 148 75 136 c 0
 63 129 52 123 47 123 c 0
 35 123 25 133 25 145 c 0
 25 152 29 159 35 163 c 0
 78 194 118 211 147 211 c 0
 172 211 189 197 189 176 c 0
 189 158 182 117 177 100 c 0
 169 72 164 64 131 9 c 0
 103 -38 102 -40 94 -55 c 1
 97 -56 98 -55 110 -55 c 0xa0
 125 -55 153 -54 200 -49 c 0
 202 -49 202 -49 203 -48 c 0
 215 -48 225 -58 225 -70 c 0
 225 -81 216 -92 205 -93 c 0x60
 176 -96 122 -100 110 -100 c 0
 66 -100 45 -88 45 -63 c 0
 45 -58 46 -52 48 -48 c 0
 70 -9 81 11 100 43 c 0
 132 97 138 112 143 167 c 1xa0
EndSplineSet
EndChar

StartChar: uni2083
Encoding: 77 8323 77
Width: 222
Flags: HW
HStem: -100 14G<47 55> -96 41<53 73 73 106> 164 47<28 149>
VStem: 136 45<-15 10>
LayerCount: 2
Fore
SplineSet
136 -14 m 2x70
 136 -1 122 13 107 26 c 0
 92 39 78 53 78 66 c 0
 78 96 104 117 126 135 c 0
 137 144 146 152 151 160 c 1
 141 164 123 167 101 167 c 0
 82 167 65 166 49 164 c 2
 47 164 l 2
 35 164 25 174 25 186 c 0
 25 197 34 208 45 209 c 0
 60 211 77 211 101 211 c 0
 165 211 197 195 197 162 c 0
 197 137 174 118 153 101 c 0
 140 90 127 79 123 69 c 1
 129 63 132 61 137 56 c 0
 167 30 181 8 181 -14 c 0
 181 -33 164 -56 139 -72 c 0
 124 -81 111 -86 73 -95 c 0
 72 -95 73 -95 73 -96 c 1
 72 -96 l 2x70
 67 -98 57 -100 53 -100 c 0xb0
 41 -100 30 -89 30 -77 c 0
 30 -64 37 -58 54 -55 c 0
 55 -55 74 -50 77 -49 c 0
 122 -38 128 -34 135 -15 c 1
 136 -15 l 1
 136 -14 l 2x70
EndSplineSet
EndChar

StartChar: uni2084
Encoding: 78 8324 78
Width: 256
Flags: HW
HStem: -100 14G<114.049 126.049> 11 45<71.0494 104.049> 87 13G<205.049 215.049> 198 13G<47.0494 59.0494 134.049 146.049>
VStem: 25.0494 45<57 196> 31.0494 45<92 209> 97.0494 45<-98 12> 118.049 45<81 209>
LayerCount: 2
Fore
SplineSet
154.049804688 76 m 1xf9
 174.049804688 85 184.049804688 91 191.049804688 95 c 0
 198.049804688 99 202.049804688 101 209.049804688 101 c 0
 221.049804688 101 231.049804688 91 231.049804688 79 c 0
 231.049804688 71 227.049804688 63 220.049804688 59 c 0
 201.049804688 48 177.049804688 37 150.049804688 27 c 0
 149.049804688 26 143.049804688 -56 142.049804688 -75 c 0
 142.049804688 -78 142.049804688 -79 142.049804688 -79 c 0
 141.049804688 -90 132.049804688 -100 120.049804688 -100 c 0
 108.049804688 -100 97.0498046875 -89 97.0498046875 -77 c 0
 97.0498046875 -76 98.0498046875 -64 99.0498046875 -45 c 0
 100.049804688 -30 102.049804688 -11 104.049804688 13 c 1
 98.0498046875 12 85.0498046875 11 82.0498046875 11 c 0
 41.0498046875 11 25.0498046875 34 25.0498046875 91 c 0xfa
 25.0498046875 103 24.0498046875 103 31.0498046875 190 c 0
 32.0498046875 202 41.0498046875 211 53.0498046875 211 c 0
 65.0498046875 211 76.0498046875 201 76.0498046875 189 c 0xf4
 76.0498046875 179 74.0498046875 159 73.0498046875 140 c 0
 72.0498046875 121 69.0498046875 101 69.0498046875 91 c 0
 69.0498046875 72 71.0498046875 62 74.0498046875 57 c 1
 75.0498046875 57 l 2
 77.0498046875 56 78.0498046875 56 82.0498046875 56 c 0
 89.0498046875 56 97.0498046875 57 108.049804688 60 c 1
 109.049804688 61 109.049804688 63 109.049804688 65 c 0
 115.049804688 134 116.049804688 149 118.049804688 191 c 0
 119.049804688 203 128.049804688 211 140.049804688 211 c 0
 152.049804688 211 163.049804688 201 163.049804688 189 c 0
 163.049804688 188 163.049804688 187 154.049804688 76 c 1xf9
EndSplineSet
EndChar

StartChar: uni2085
Encoding: 79 8325 79
Width: 240
Flags: HW
HStem: -106 45<72 151> 165 45<81 213>
VStem: 33 45<92 167> 164 45<-48 10>
LayerCount: 2
Fore
SplineSet
111 213 m 2
 115 213 l 2
 128 213 135 214 182 211 c 0
 184 211 186 211 188 211 c 0
 190 211 192 210 194 210 c 0
 206 209 215 200 215 188 c 0
 215 176 205 165 193 165 c 2
 190 165 l 1
 152 168 126 169 111 169 c 0
 98 169 86 168 81 167 c 1
 78 149 77 142 77 135 c 0
 77 97 86 88 137 67 c 0
 192 44 209 27 209 -7 c 0
 209 -67 172 -106 117 -106 c 0
 70 -106 25 -80 25 -55 c 0
 25 -43 35 -33 47 -33 c 0
 56 -33 64 -38 67 -45 c 1
 79 -54 100 -61 117 -61 c 0
 148 -61 163 -44 164 -9 c 2
 164 -7 l 2
 164 8 147 14 124 23 c 0
 101 32 72 43 53 66 c 0
 39 82 33 104 33 135 c 0
 33 154 38 182 43 193 c 0
 50 208 68 213 111 213 c 2
EndSplineSet
EndChar

StartChar: uni2086
Encoding: 80 8326 80
Width: 201
Flags: HW
HStem: -100 45<75 125> 198 13G<132 142>
VStem: 131 45<-48 10>
LayerCount: 2
Fore
SplineSet
97 -55 m 0
 116 -55 131 -42 131 -25 c 0
 131 -2 111 26 90 31 c 1
 78 2 71 -17 69 -30 c 1
 73 -47 83 -55 97 -55 c 0
159 189 m 0
 159 186 158 186 154 177 c 0
 148 165 135 138 107 73 c 1
 146 60 176 17 176 -25 c 0
 176 -67 141 -100 97 -100 c 0
 60 -100 25 -67 25 -31 c 0
 25 -6 57 76 116 199 c 0
 119 206 127 211 136 211 c 0
 148 211 159 201 159 189 c 0
EndSplineSet
EndChar

StartChar: uni2087
Encoding: 81 8327 81
Width: 217
Flags: HW
HStem: -100 14G<130 142> 198 13G<143 166>
VStem: 113 45<-98 0> 147 45<54 158 159 167>
LayerCount: 2
Fore
SplineSet
113 -77 m 0xe0
 113 -46 122 -3 131 40 c 0
 140 83 147 127 147 158 c 0
 147 159 l 0
 147 160 l 2
 147 167 l 1
 112 164 68 158 53 155 c 0
 50 154 47 154 47 154 c 0
 35 154 25 165 25 177 c 0
 25 188 32 197 43 199 c 0
 86 206 131 211 155 211 c 0
 177 211 190 203 191 188 c 2
 191 184 l 2
 191 182 191 176 191 171 c 0
 191 166 192 160 192 158 c 0xd0
 192 103 183 58 174 15 c 0
 168 -16 161 -45 158 -80 c 0
 157 -91 147 -100 136 -100 c 0
 124 -100 113 -89 113 -77 c 0xe0
EndSplineSet
EndChar

StartChar: uni2088
Encoding: 82 8328 82
Width: 204
Flags: HW
HStem: -100 45<85 133> 167 45<76 117>
VStem: 27 45<-42 7 93 158> 134 45<-55 -11>
LayerCount: 2
Fore
SplineSet
118 -100 m 0
 69 -100 27 -63 27 -18 c 0
 27 -1 33 11 58 53 c 1
 35 78 25 103 25 131 c 0
 25 141 26 151 29 161 c 0
 36 189 76 211 117 211 c 0
 145 211 163 197 163 174 c 0
 163 142 149 110 115 59 c 1
 123 51 l 1
 166 12 179 -10 179 -46 c 0
 179 -79 155 -100 118 -100 c 0
91 21 m 1
 91 18 86 9 81 1 c 0
 76 -7 72 -15 72 -18 c 2
 72 -21 l 1
 75 -40 95 -55 118 -55 c 0
 129 -55 134 -53 134 -46 c 0
 134 -25 130 -18 92 20 c 0
 91 20 92 20 91 21 c 1
117 167 m 1
 102 167 76 156 72 149 c 0
 70 144 69 138 69 131 c 0
 69 117 74 104 83 92 c 1
 106 127 115 148 117 167 c 1
EndSplineSet
EndChar

StartChar: uni2089
Encoding: 83 8329 83
Width: 227
Flags: HW
HStem: -100 14G<157 168> 61 39<72 123> 167 45<81 131>
VStem: 25 45<103 155> 157 45<-41 87>
LayerCount: 2
Fore
SplineSet
69 125 m 0
 69 110 78 101 91 101 c 0
 108 101 126 112 142 135 c 1
 134 155 121 167 108 167 c 0
 87 167 69 148 69 125 c 0
140 -77 m 0
 140 -64 145 -39 149 -13 c 0
 153 13 157 38 157 51 c 0
 157 66 157 76 154 87 c 1
 129 68 112 61 91 61 c 0
 51 61 25 86 25 125 c 0
 25 172 62 211 108 211 c 0
 142 211 170 187 185 145 c 2
 192 124 l 2
 199 99 202 75 202 51 c 0
 202 22 202 23 185 -81 c 0
 183 -92 174 -100 163 -100 c 0
 151 -100 140 -89 140 -77 c 0
EndSplineSet
EndChar

StartChar: uni208A
Encoding: 84 8330 84
Width: 230
Flags: HW
HStem: -100 14G<111 123> -19 44<28 93 139 202> 87 13G<109 121>
VStem: 95 44<-98 -21 25 97>
LayerCount: 2
Fore
SplineSet
46 23 m 0
 47 23 49 24 52 24 c 0
 55 24 58 24 59 24 c 2
 93 24 l 1
 93 77 l 1
 93 89 103 100 115 100 c 0
 127 100 137 90 137 78 c 0
 138 63 138 58 138 25 c 1
 148 25 l 2
 149 25 152 25 153 25 c 0
 154 25 156 26 157 26 c 2
 168 26 l 2
 181 26 181 26 182 27 c 0
 194 27 205 16 205 4 c 0
 205 -8 195 -17 183 -18 c 0
 181 -18 179 -19 177 -19 c 0
 175 -19 174 -19 172 -19 c 2
 150 -19 l 2
 149 -19 146 -19 144 -19 c 0
 142 -19 140 -19 139 -19 c 1
 139 -77 l 1
 139 -89 129 -100 117 -100 c 0
 105 -100 95 -90 95 -78 c 0
 94 -63 94 -58 94 -21 c 1
 83 -22 74 -21 47 -21 c 0
 35 -21 25 -11 25 1 c 0
 25 13 34 22 46 23 c 0
EndSplineSet
EndChar

StartChar: uni208B
Encoding: 85 8331 85
Width: 234
Flags: HW
VStem: 25 185<-13 20>
LayerCount: 2
Fore
SplineSet
188 -15 m 0
 107 -19 56 -22 47 -23 c 0
 35 -23 25 -12 25 0 c 0
 25 12 34 21 46 22 c 0
 127 26 178 28 187 29 c 0
 199 29 209 19 209 7 c 0
 209 -5 200 -14 188 -15 c 0
EndSplineSet
EndChar

StartChar: uni208C
Encoding: 86 8332 86
Width: 234
Flags: HW
HStem: -75 45<27 185> -70 45<131 207> 15 45<28 112> 22 41<50 179 180 201>
VStem: 25 185<-68 -33>
LayerCount: 2
Fore
SplineSet
47 60 m 0x28
 51 60 82 62 113 63 c 0
 144 64 175 66 179 66 c 1
 180 67 l 1
 192 67 203 56 203 44 c 0
 203 32 193 23 181 22 c 0x18
 176 22 96 18 47 15 c 0
 35 15 25 26 25 38 c 0
 25 50 35 59 47 60 c 0x28
47 -75 m 0x88
 35 -75 25 -65 25 -53 c 0
 25 -41 34 -32 47 -31 c 0x88
 50 -31 74 -30 105 -29 c 0
 131 -28 162 -26 187 -25 c 0
 199 -25 209 -36 209 -48 c 0
 209 -60 200 -69 187 -70 c 0x48
 184 -70 160 -71 129 -72 c 0
 103 -73 72 -74 47 -75 c 0x88
EndSplineSet
EndChar

StartChar: uni208D
Encoding: 87 8333 87
Width: 183
Flags: HW
HStem: -255 14G<116 126> 198 13G<133 142>
VStem: 25 45<-114 52>
LayerCount: 2
Fore
SplineSet
119 203 m 0
 122 208 129 211 136 211 c 0
 148 211 158 201 158 189 c 0
 158 184 156 179 153 175 c 0
 96 110 69 43 69 -34 c 0
 69 -97 94 -166 137 -219 c 0
 140 -223 142 -227 142 -233 c 0
 142 -245 132 -255 120 -255 c 0
 113 -255 106 -252 103 -247 c 0
 54 -184 25 -106 25 -34 c 0
 25 53 54 128 119 203 c 0
EndSplineSet
EndChar

StartChar: uni208E
Encoding: 88 8334 88
Width: 195
Flags: HW
HStem: -255 14G<41 50> 198 13G<70 79>
VStem: 125 45<-92 75>
LayerCount: 2
Fore
SplineSet
54 189 m 0
 54 201 64 211 76 211 c 0
 83 211 89 209 93 204 c 0
 140 153 170 69 170 -11 c 0
 170 -96 143 -154 63 -247 c 0
 58 -252 53 -255 47 -255 c 0
 35 -255 25 -245 25 -233 c 0
 25 -228 27 -223 30 -219 c 0
 103 -134 125 -84 125 -11 c 0
 125 56 98 131 59 174 c 0
 56 178 54 183 54 189 c 0
EndSplineSet
EndChar

StartChar: uni2090
Encoding: 89 8336 89
Width: 229
Flags: HW
HStem: -100 45<69 96> 55 45<108 147>
VStem: 25 45<-55 10> 145 45<-9 55> 151 53<-92 -55>
LayerCount: 2
Fore
SplineSet
189 1 m 0xf0
 189 -23 193 -32 197 -39 c 0
 201 -46 204 -53 204 -77 c 0
 204 -89 193 -100 181 -100 c 0
 165 -100 160 -92 151 -55 c 1xe8
 122 -84 91 -100 69 -100 c 0
 42 -100 25 -79 25 -46 c 0
 25 -12 40 35 59 59 c 0
 80 85 109 100 142 100 c 0
 176 100 195 90 195 72 c 0
 195 61 193 48 192 36 c 0
 191 24 189 12 189 1 c 0xf0
70 -55 m 0
 84 -55 125 -21 145 7 c 1xf0
 145 30 145 44 147 55 c 1
 142 55 l 2
 103 55 69 9 69 -46 c 0
 69 -54 69 -54 70 -55 c 0
EndSplineSet
EndChar

StartChar: uni2091
Encoding: 90 8337 90
Width: 206
Flags: HW
HStem: -100 45<74 134> 87 13G<111 125>
VStem: 115 46<12 54>
LayerCount: 2
Fore
SplineSet
93 -55 m 0
 105 -55 115 -51 125 -46 c 0
 135 -41 146 -37 158 -37 c 0
 170 -37 181 -47 181 -59 c 0
 181 -68 176 -75 169 -79 c 0
 142 -93 119 -100 93 -100 c 0
 52 -100 25 -72 25 -29 c 0
 25 -19 26 -10 28 1 c 0
 42 60 62 88 101 99 c 0
 110 100 110 100 111 100 c 0
 139 100 161 72 161 36 c 0
 161 -4 119 -44 74 -49 c 1
 77 -54 81 -55 93 -55 c 0
115 29 m 2
 116 34 117 35 117 36 c 0
 117 41 114 48 109 55 c 1
 91 48 82 33 73 -4 c 1
 92 -1 104 9 115 28 c 1
 115 29 l 2
EndSplineSet
EndChar

StartChar: uni2092
Encoding: 91 8338 91
Width: 206
Flags: HW
HStem: -100 45<71 113> 87 13G<106 152>
VStem: 25 47<-54 14> 137 45<-22 54>
LayerCount: 2
Fore
SplineSet
80 -100 m 0
 44 -100 25 -79 25 -40 c 0
 25 32 76 96 136 100 c 1
 139 100 l 2
 165 100 181 76 181 39 c 0
 181 20 177 -5 169 -31 c 0
 157 -65 143 -81 117 -92 c 0
 105 -97 93 -100 80 -100 c 0
135 55 m 1
 100 51 69 5 69 -40 c 0
 69 -43 70 -46 71 -53 c 2
 71 -54 l 2
 72 -55 76 -55 80 -55 c 0
 91 -55 105 -50 113 -43 c 0
 124 -33 137 12 137 39 c 0
 137 44 136 50 135 55 c 1
EndSplineSet
EndChar

StartChar: uni2093
Encoding: 92 8339 92
Width: 216
Flags: HW
HStem: -100 14G<41 53 160 169> 87 13G<44 56 163 175>
VStem: 25 167
LayerCount: 2
Fore
SplineSet
29 -63 m 0
 32 -60 51 -36 75 -3 c 1
 38 53 27 70 27 77 c 0
 27 89 38 100 50 100 c 0
 62 100 65 98 82 69 c 0
 88 58 93 52 97 46 c 0
 99 43 101 39 103 36 c 1
 139 83 156 100 169 100 c 0
 181 100 191 90 191 78 c 0
 191 71 190 65 185 61 c 0
 169 47 142 16 129 -3 c 1
 144 -22 159 -40 180 -63 c 0
 183 -67 185 -72 185 -78 c 0
 185 -90 175 -100 163 -100 c 0
 156 -100 151 -98 147 -93 c 0
 132 -76 123 -66 103 -41 c 1
 65 -94 60 -100 47 -100 c 0
 35 -100 25 -90 25 -78 c 0
 25 -71 26 -66 29 -63 c 0
EndSplineSet
EndChar

StartChar: uni2095
Encoding: 93 8341 93
Width: 239
Flags: HW
HStem: -100 14G<41 52 180 192> 54 46<119 162> 198 13G<73 85>
VStem: 25 43<-98 -49> 55 45<86 208> 164 44<-98 6> 169 45<-86 54>
LayerCount: 2
Fore
SplineSet
164 -77 m 0xe4
 164 -68 166 -52 167 -36 c 0
 168 -20 169 -3 169 6 c 0
 169 27 165 42 156 54 c 1
 155 54 l 2
 152 55 151 55 149 55 c 0
 138 54 126 50 119 45 c 1
 110 32 100 11 90 -17 c 0
 85 -36 78 -59 68 -86 c 0
 65 -94 56 -100 47 -100 c 0
 34 -100 25 -90 25 -78 c 0xf2
 25 -73 30 -56 36 -39 c 0
 41 -26 45 -12 47 -3 c 0
 53 29 55 54 55 107 c 0
 55 140 56 160 57 191 c 0
 58 203 67 211 79 211 c 0
 91 211 102 201 102 189 c 2
 102 188 l 2
 101 171 100 143 100 106 c 2
 100 86 l 1
 117 95 133 100 149 100 c 0
 190 100 214 65 214 6 c 0xea
 214 -1 210 -57 208 -76 c 2
 208 -79 l 2
 207 -91 198 -100 186 -100 c 0
 174 -100 164 -89 164 -77 c 0xe4
EndSplineSet
EndChar

StartChar: uni2096
Encoding: 94 8342 94
Width: 207
Flags: HW
HStem: -100 14G<45 57 156 166> 87 13G<152 162> 198 13G<49 61>
VStem: 25 45<52 204> 29 45<-98 -40> 33 45<62 209>
LayerCount: 2
Fore
SplineSet
160 -100 m 0xf0
 152 -100 152 -100 144 -93 c 0
 135 -85 117 -69 72 -37 c 1
 72 -42 72 -60 73 -69 c 0
 73 -72 73 -74 74 -77 c 2
 74 -89 63 -100 51 -100 c 0
 39 -100 30 -91 29 -79 c 0xe8
 28 -45 25 44 25 59 c 0xf0
 25 114 27 151 33 192 c 0
 34 203 44 211 55 211 c 0
 67 211 77 201 77 189 c 2
 77 186 l 1xe4
 72 149 69 105 69 59 c 2
 69 52 l 1
 138 95 149 100 156 100 c 0
 168 100 178 90 178 78 c 0
 178 63 166 52 117 27 c 0
 116 27 117 27 116 27 c 0
 90 13 90 13 85 9 c 0
 176 -56 182 -62 182 -78 c 0
 182 -90 172 -100 160 -100 c 0xf0
EndSplineSet
EndChar

StartChar: uni2097
Encoding: 95 8343 95
Width: 102
Flags: HW
HStem: -100 14G<41 53> 198 13G<49 61>
VStem: 25 45<-98 68> 29 48<-92 207>
LayerCount: 2
Fore
SplineSet
55 211 m 0xd0
 67 211 77 201 77 189 c 2
 77 187 l 2xd0
 75 164 74 119 73 56 c 0
 73 -13 72 -40 69 -79 c 0
 68 -90 59 -100 47 -100 c 0
 35 -100 25 -89 25 -77 c 2
 25 -76 l 1xe0
 28 -53 28 -14 29 56 c 2
 29 87 l 2
 29 136 30 162 33 191 c 0
 34 202 43 211 55 211 c 0xd0
EndSplineSet
EndChar

StartChar: uni2098
Encoding: 96 8344 96
Width: 344
Flags: HW
HStem: -100 14G<41 57 287 299> 47 45<106 150 231 270> 87 13G<65 76>
VStem: 148 45<-64 -6> 271 45<-98 -78 -77 46>
LayerCount: 2
Fore
SplineSet
319 -1 m 0xd8
 319 -16 318 -25 317 -36 c 0
 316 -47 315 -56 315 -71 c 2
 315 -77 l 1
 316 -77 l 1
 316 -89 305 -100 293 -100 c 0
 281 -100 271 -90 271 -78 c 0
 271 -77 l 0
 271 -76 l 2
 271 -71 l 2
 271 -57 271 -47 272 -36 c 0
 273 -25 274 -15 274 -1 c 0
 274 34 268 47 252 47 c 0xd8
 231 47 203 2 193 -49 c 0
 191 -59 182 -67 171 -67 c 0
 158 -67 148 -57 148 -44 c 0
 148 -34 150 -26 152 -19 c 0
 154 -12 155 -3 155 7 c 0
 155 23 151 36 143 46 c 1
 142 46 142 46 141 47 c 1
 104 47 77 14 74 -35 c 0
 72 -86 66 -100 47 -100 c 0
 34 -100 25 -90 25 -78 c 2
 25 -76 l 1
 26 -69 26 -69 26 -68 c 0
 26 -67 26 -68 27 -63 c 0
 28 -58 28 -49 30 -30 c 0
 30 -29 31 -29 31 -28 c 0
 31 -27 31 -28 31 -27 c 2
 31 -17 l 1
 34 34 38 57 49 86 c 0
 52 95 61 100 70 100 c 0xb8
 82 100 91 91 92 79 c 1
 109 86 127 91 141 91 c 0
 164 91 176 83 189 57 c 1
 207 80 229 92 252 92 c 0
 296 92 319 60 319 -1 c 0xd8
EndSplineSet
EndChar

StartChar: uni2099
Encoding: 97 8345 97
Width: 224
Flags: HW
HStem: -100 14G<40 58 168 181> 41 45<102 150> 87 13G<71 81>
VStem: 25 47<-98 6> 155 45<-97 40>
LayerCount: 2
Fore
SplineSet
199 -19 m 0
 199 -27 199 -38 198 -49 c 0
 197 -60 197 -71 197 -79 c 0
 196 -91 187 -100 175 -100 c 0
 162 -100 153 -91 153 -78 c 2
 153 -76 l 2
 154 -53 155 -34 155 -19 c 0
 155 14 152 34 145 41 c 1
 141 41 l 2
 130 41 105 32 94 23 c 1
 74 -4 72 -34 71 -57 c 0
 70 -82 68 -100 47 -100 c 0
 33 -100 25 -90 25 -75 c 0
 25 -28 38 42 55 86 c 0
 58 95 66 100 75 100 c 0
 87 100 98 89 98 77 c 1
 97 77 l 1
 97 76 l 1
 114 83 128 86 141 86 c 0
 182 86 199 54 199 -19 c 0
EndSplineSet
EndChar

StartChar: uni209A
Encoding: 98 8346 98
Width: 222
Flags: HW
HStem: -255 14G<41 53> -100 45<88 129> 55 45<82 150>
VStem: 25 45<-253 -91> 31 45<-249 -91 -44 49> 153 45<-27 53>
LayerCount: 2
Fore
SplineSet
153 17 m 2xe4
 153 50 149 55 126 55 c 0
 107 55 95 54 82 50 c 1
 79 28 77 10 77 1 c 0
 78 -36 90 -55 110 -55 c 0
 127 -55 152 -17 153 10 c 2
 153 17 l 2xe4
126 100 m 0
 176 100 197 75 197 17 c 0
 197 -45 156 -100 109 -100 c 0
 99 -100 88 -97 75 -91 c 1
 75 -113 l 2xec
 75 -158 73 -199 69 -235 c 0
 68 -246 58 -255 47 -255 c 0
 35 -255 25 -245 25 -233 c 2
 25 -231 l 1xf4
 29 -201 31 -160 31 -113 c 2
 31 -75 l 2xec
 31 -44 32 -24 33 2 c 2
 33 5 l 2
 33 30 38 69 43 78 c 0
 46 83 49 87 55 89 c 0
 78 97 100 100 126 100 c 0
EndSplineSet
EndChar

StartChar: uni209B
Encoding: 99 8347 99
Width: 210
Flags: HW
HStem: -100 43<39 116> 55 45<104 170>
VStem: 59 45<27 54> 124 45<-47 -16>
LayerCount: 2
Fore
SplineSet
104 41 m 0
 104 26 123 28 139 17 c 4
 155 6 169 -16 169 -31 c 0
 169 -70 132 -100 85 -100 c 0
 69 -100 54 -98 41 -93 c 0
 32 -90 25 -82 25 -72 c 0
 25 -60 35 -50 47 -50 c 0
 55 -50 60 -51 63 -53 c 0
 66 -55 69 -57 77 -57 c 0
 99 -57 124 -43 124 -31 c 0
 124 -16 110 -19 91 -6 c 0
 75 5 59 26 59 41 c 0
 59 76 87 100 128 100 c 0
 162 100 185 88 185 71 c 0
 185 59 175 48 163 48 c 0
 156 48 150 50 145 52 c 0
 140 54 135 55 128 55 c 0
 112 55 104 50 104 41 c 0
EndSplineSet
EndChar

StartChar: uni209C
Encoding: 100 8348 100
Width: 224
Flags: HW
HStem: -100 14G<104 133> 49 44<27 48 48 53 53 84> 53 45<133 197> 198 13G<105 117>
VStem: 79 45<-52 52> 89 45<-30 54 136 158 187 189> 139 48<-51 -4>
LayerCount: 2
Fore
SplineSet
133 100 m 1xb6
 137 100 146 100 155 99 c 0
 164 98 174 98 178 98 c 0
 190 97 199 88 199 76 c 0
 199 64 189 53 177 53 c 2
 176 53 l 2xb6
 169 53 161 54 153 55 c 0
 145 56 136 55 129 55 c 1
 124 7 124 -8 124 -31 c 0
 124 -38 124 -44 125 -53 c 1
 132 -46 136 -36 139 -27 c 0
 144 -13 147 -1 164 -1 c 0
 176 -1 187 -11 187 -23 c 0
 187 -58 149 -100 117 -100 c 0
 91 -100 79 -78 79 -31 c 0
 79 -12 80 -7 85 54 c 1
 80 53 76 54 73 53 c 0
 61 52 60 52 57 51 c 0
 56 51 54 50 53 50 c 0
 53 49 l 0
 52 49 l 2
 48 49 l 1
 48 48 48 49 47 49 c 0
 35 49 25 59 25 71 c 0
 25 82 32 91 43 93 c 0xda
 44 93 46 94 47 94 c 0
 52 95 52 95 73 97 c 0
 77 98 81 98 86 99 c 2
 88 99 l 1
 89 114 90 136 90 158 c 0
 90 169 90 175 89 186 c 2
 89 189 l 2
 89 201 99 211 111 211 c 0
 123 211 132 202 133 191 c 2
 133 187 l 2
 134 159 135 159 135 158 c 0
 135 136 134 115 133 100 c 1xb6
EndSplineSet
EndChar
